<svg width="680" height="680" viewBox="0 0 680 680" fill="none" xmlns="http://www.w3.org/2000/svg">
<circle cx="336" cy="281" r="123" fill="white"/>
<path d="M378.366 45.7533C366.376 40.7433 353.486 42.9033 341.956 49.0733C266.049 89.7067 192.336 128.967 120.816 166.853C111.509 171.787 101.459 177.07 90.6659 182.703C79.4359 188.573 73.8159 200.243 77.4759 212.683C78.5025 216.19 80.6425 220.16 83.8959 224.593C98.6492 244.713 113.073 264.777 127.166 284.783C154.326 323.33 182.139 362.667 210.606 402.793C225.346 423.567 239.383 443.34 252.716 462.113C256.976 468.107 260.803 473.563 264.196 478.483C276.056 495.673 288.126 512.613 300.086 529.853C303.033 534.093 305.529 537.253 307.576 539.333C314.886 546.753 328.736 549.563 339.146 547.413C342.019 546.82 346.239 545 351.806 541.953C364.459 535.027 377.079 528.117 389.666 521.223C448.499 489.003 510.309 455.047 575.096 419.353C582.343 415.36 590.436 410.877 599.376 405.903C606.816 401.763 611.206 398.563 614.376 391.093C619.376 379.333 615.026 368.363 607.796 358.243C581.029 320.817 537.193 259.193 476.286 173.373C463.486 155.343 451.006 138.143 437.296 118.643C425.409 101.737 413.356 84.6667 401.136 67.4333C397.756 62.6667 394.653 58.5633 391.826 55.1233C388.699 51.3167 384.213 48.1933 378.366 45.7533Z" stroke="#8098A8" stroke-width="2"/>
<path d="M311.926 564.423C300.576 560.303 292.516 553.003 285.516 543.453C279.223 534.853 273.653 527.11 268.806 520.223C252.066 496.437 235.339 472.777 218.626 449.243C206.979 432.837 196.076 417.367 185.916 402.833C181.916 397.113 177.546 390.913 172.806 384.233C144.939 344.953 117.629 306.403 90.8759 268.583C83.9359 258.783 75.6059 247.217 65.8859 233.883C62.4459 229.17 60.1325 224.317 58.9459 219.323C58.7059 218.29 58.5492 218.303 58.4759 219.363C58.0359 225.543 59.1192 231.523 61.7259 237.303C62.5659 239.17 65.7859 244.133 71.3859 252.193C89.5792 278.367 106.893 303.193 123.326 326.673C143.779 355.887 166.339 388.01 191.006 423.043C195.626 429.593 200.096 436.413 204.816 442.973C208.183 447.653 211.693 452.587 215.346 457.773C242.556 496.443 269.416 535.033 296.626 575.353C304.746 587.387 316.446 593.5 331.726 593.693C338.893 593.787 345.129 592.377 350.436 589.463C358.849 584.843 366.919 580.45 374.646 576.283C448.459 536.49 515.773 499.93 576.586 466.603C587.159 460.81 598.093 454.76 609.386 448.453C621.426 441.727 628.219 431.477 629.766 417.703C630.193 413.923 630.466 409.153 630.586 403.393C630.606 402.647 630.459 402.613 630.146 403.293C628.146 407.593 625.616 411.283 621.846 414.643C617.466 418.55 612.393 422.093 606.626 425.273C575.419 442.487 542.109 460.77 506.696 480.123C489.603 489.47 472.726 498.69 456.066 507.783C428.199 522.99 401.719 537.55 376.626 551.463C371.353 554.39 365.449 557.557 358.916 560.963C353.229 563.937 348.526 565.843 344.806 566.683C333.859 569.17 322.899 568.417 311.926 564.423Z" stroke="#5985A2" stroke-width="2"/>
<path d="M630.276 457.433C630.323 456.94 630.419 456.457 630.566 455.983C630.746 455.383 630.646 455.33 630.266 455.823C624.016 463.973 614.836 468.843 605.866 473.713C537.146 511.003 466.606 548.973 399.906 585.193C387.116 592.143 373.956 598.883 361.246 605.843C356.419 608.497 352.156 610.31 348.456 611.283C332.909 615.377 317.993 613.69 303.706 606.223C294.693 601.51 287.486 595.21 282.086 587.323C269.586 569.077 257.736 551.847 246.536 535.633C210.069 482.82 170.189 425.717 126.896 364.323C108.783 338.643 87.9525 308.84 64.4059 274.913C60.6759 269.533 56.7059 264.333 53.0159 258.793C52.3159 257.747 51.9325 257.853 51.8659 259.113C51.4125 267.433 53.3125 274.96 57.5659 281.693C60.3659 286.127 63.2192 290.43 66.1259 294.603C98.7992 341.51 135.536 394.01 176.336 452.103C186.129 466.043 196.769 481.303 208.256 497.883C220.569 515.657 233.279 534.053 246.386 553.073C255.106 565.723 263.476 578.313 272.336 590.583C279.083 599.923 285.023 608.387 290.156 615.973C299.816 630.243 314.236 637.743 331.516 636.603C340.416 636.013 347.576 631.623 355.116 627.443C394.936 605.363 450.099 575.053 520.606 536.513C547.406 521.863 574.356 507.503 600.746 492.993C610.106 487.847 615.809 484.417 617.856 482.703C625.109 476.643 629.249 468.22 630.276 457.433Z" stroke="#5985A2" stroke-width="2"/>
<path d="M629.786 355.373C630.236 356.033 630.356 356.683 630.706 357.363C630.939 357.797 631.223 357.83 631.556 357.463C634.403 354.337 636.453 351.053 637.706 347.613C642.776 333.683 634.776 322.863 623.066 316.403C614.259 311.55 605.109 306.707 595.616 301.873C593.426 300.763 591.506 299.263 589.436 297.943C588.896 297.597 588.799 297.693 589.146 298.233C589.836 299.263 590.726 300.193 591.466 301.233C603.576 318.243 617.546 337.013 629.786 355.373Z" stroke="#8098A8" stroke-width="2"/>
<path d="M60.7859 328.763C56.9992 331.03 53.4025 333.547 49.9959 336.313C42.5759 342.363 39.3859 352.233 43.1059 361.203C46.3059 368.933 52.5959 373.493 59.5859 377.673C71.3192 384.707 83.2159 392.073 95.2759 399.773C106.246 406.773 118.066 413.593 128.796 420.863C130.576 422.07 130.853 421.79 129.626 420.023C113.359 396.597 96.7159 372.68 79.6959 348.273C74.7092 341.127 69.6259 334.023 64.4459 326.963C64.1859 326.61 63.8859 326.57 63.5459 326.843C62.6859 327.537 61.7659 328.177 60.7859 328.763Z" stroke="#8098A8" stroke-width="2"/>
<path d="M636.036 387.973C636.035 388.091 636.076 388.206 636.15 388.297C636.225 388.389 636.328 388.451 636.444 388.475C636.559 388.499 636.68 388.481 636.784 388.426C636.888 388.371 636.97 388.282 637.016 388.173L644.026 371.173C644.073 371.063 644.079 370.94 644.045 370.826C644.01 370.711 643.936 370.612 643.836 370.547C643.736 370.481 643.616 370.453 643.497 370.467C643.378 370.481 643.268 370.536 643.186 370.623L636.436 377.793C636.351 377.883 636.301 378 636.296 378.123L636.036 387.973Z" stroke="#5985A2" stroke-width="2"/>
<path d="M38.8659 400.463C41.6959 407.493 49.5459 412.543 55.7559 416.343C88.4092 436.31 121.069 456.273 153.736 476.233C163.026 481.903 172.936 487.463 182.506 493.463C183.306 493.97 183.419 493.847 182.846 493.093C182.216 492.283 181.306 491.613 180.656 490.763C175.089 483.51 169.469 476.05 163.796 468.383C163.274 467.683 162.622 467.086 161.876 466.623C152.696 460.993 143.726 454.633 134.696 448.803C115.263 436.237 96.2692 424.23 77.7159 412.783C65.5692 405.283 55.6692 399.1 48.0159 394.233C43.8959 391.623 40.2359 388.493 36.9759 384.853C36.4825 384.3 36.2125 384.393 36.1659 385.133C35.8592 390.127 36.7592 395.237 38.8659 400.463Z" stroke="#5985A2" stroke-width="2"/>
<path d="M180.086 521.653C189.673 526.827 199.509 532.44 209.596 538.493C209.729 538.573 209.836 538.55 209.916 538.423L210.096 538.143C210.116 538.103 210.109 538.073 210.076 538.053C204.376 534.1 198.756 530.187 193.216 526.313C189.069 523.413 184.326 520.303 178.986 516.983C174.246 514.023 169.446 511.007 164.586 507.933C142.413 493.9 114.939 477.133 82.1659 457.633C71.1725 451.093 60.4292 444.627 49.9359 438.233C45.8959 435.773 40.5159 432.463 37.8859 428.463C37.1592 427.363 36.8459 427.467 36.9459 428.773C37.6959 439.273 44.2159 446.183 53.0259 451.213C60.1459 455.28 66.9592 459.137 73.4659 462.783C109.326 482.863 144.586 502.523 180.086 521.653Z" stroke="#5985A2" stroke-width="2"/>
<path d="M643.315 436.106C643.341 436.042 643.341 435.971 643.314 435.907C643.288 435.843 643.237 435.793 643.173 435.767L642.728 435.586C642.665 435.56 642.593 435.56 642.529 435.587C642.466 435.614 642.416 435.664 642.389 435.728L636.337 450.561C636.31 450.624 636.311 450.696 636.337 450.76C636.364 450.823 636.415 450.874 636.479 450.9L636.923 451.081C636.987 451.107 637.059 451.107 637.122 451.08C637.186 451.053 637.236 451.002 637.262 450.938L643.315 436.106Z" stroke="#5985A2" stroke-width="2"/>
<path d="M306.576 413.253C305.829 414.38 306.363 415.483 308.176 416.563C319.236 423.17 330.809 427.64 342.896 429.973C371.666 435.533 398.916 429.213 423.626 413.363C439.606 403.113 453.036 387.053 459.456 368.483C461.083 363.783 462.183 359.633 462.756 356.033C463.756 349.713 464.256 342.843 462.686 336.403C462.619 336.117 462.439 335.967 462.146 335.953C461.899 335.94 461.639 335.823 461.366 335.603" stroke="#D7EAF6" stroke-width="2"/>
<path d="M461.366 335.603C476.386 297.133 474.426 254.613 453.756 218.583C440.216 194.963 420.386 175.563 396.166 164.003C377.819 155.243 358.829 150.3 339.196 149.173C319.149 148.033 300.029 151.203 281.836 158.683C248.996 172.183 225.723 195.373 212.016 228.253C209.536 234.193 207.469 240.607 205.816 247.493C198.786 276.753 200.246 307.033 212.336 334.373C227.849 369.46 253.609 394.05 289.616 408.143C292.909 409.437 298.563 411.14 306.576 413.253" stroke="#8098A8" stroke-width="2"/>
<path d="M461.366 335.603C459.866 338.85 458.309 342.047 456.696 345.193C445.763 366.52 430.093 383.453 409.686 395.993C382.873 412.467 353.206 419.07 320.686 415.803C318.526 415.59 313.823 414.74 306.576 413.253" stroke="#5985A2" stroke-width="2"/>
<path d="M53.0459 311.453C53.2691 311.315 53.4619 311.132 53.6127 310.917C53.7635 310.702 53.8691 310.458 53.9233 310.2C53.9775 309.942 53.9791 309.676 53.9279 309.417C53.8768 309.158 53.7741 308.912 53.6259 308.693C45.8159 297.233 36.6759 283.613 35.8059 269.203C35.4725 263.657 35.6859 258.437 36.4459 253.543C37.2959 248.063 39.2759 242.693 40.8259 237.333C41.2759 235.783 41.4259 233.613 41.3259 232.003C40.6759 222.023 42.3059 211.283 48.4359 203.473C50.8825 200.36 53.6059 197.413 56.6059 194.633C57.4125 193.887 58.1092 192.997 58.6959 191.963C62.5859 185.063 65.6859 178.593 71.6159 172.973C74.5425 170.207 79.1492 167.157 85.4359 163.823C115.649 147.81 146.513 131.493 178.026 114.873C183.926 111.76 189.809 108.627 195.676 105.473C234.443 84.64 272.266 64.31 309.146 44.4833C317.313 40.0967 325.553 35.8933 333.866 31.8733C348.916 24.6033 364.626 21.4133 380.826 26.4433C393.486 30.3767 403.566 37.6133 411.066 48.1533C427.599 71.38 443.096 93.3333 457.556 114.013C461.342 119.427 465.193 124.853 469.106 130.293C499.946 173.093 530.376 215.883 560.026 259.213C562.046 262.153 564.026 264.023 567.366 265.773C587.766 276.473 607.549 286.707 626.716 296.473C632.516 299.427 637.232 302.323 640.866 305.163C653.136 314.743 659.476 331.573 656.286 346.793C655.506 350.513 655.139 353.6 655.186 356.053C655.333 363.8 655.383 371.88 655.336 380.293C655.189 403.34 655.266 423.257 655.566 440.043C655.706 447.963 654.103 455.167 650.756 461.653C648.176 466.667 645.433 471.9 642.526 477.353C637.456 486.873 631.956 495.973 623.166 501.613C610.746 509.593 596.756 516.783 583.286 524.243C565.093 534.33 547.019 544.17 529.066 553.763C520.446 558.363 512.026 563.313 503.386 567.763C500.196 569.403 497.136 571.413 493.866 573.203C473.639 584.263 450.579 596.867 424.686 611.013C403.793 622.427 383.726 633.46 364.486 644.113C360.153 646.513 355.366 648.82 350.126 651.033C328.996 659.953 302.766 654.363 286.206 639.123C280.876 634.213 276.106 628.033 271.926 621.933C263.126 609.1 254.229 596.13 245.236 583.023C241.446 577.493 238.156 574.233 231.816 570.733C226.243 567.66 220.686 564.6 215.146 561.553C181.506 543.04 148.776 525.08 116.956 507.673C97.5159 497.047 77.3892 485.973 56.5759 474.453C51.8959 471.867 47.4592 469.273 43.2659 466.673C38.6259 463.803 32.8059 459.703 29.8259 455.293C25.2925 448.567 23.0292 441.643 23.0359 434.523C23.0859 407.583 22.8259 381.053 23.2359 353.793C23.3959 343.593 26.5659 333.643 32.8059 326.693C38.4259 320.433 45.9159 315.833 53.0459 311.453ZM378.366 45.7533C366.376 40.7433 353.486 42.9033 341.956 49.0733C266.049 89.7067 192.336 128.967 120.816 166.853C111.509 171.787 101.459 177.07 90.6659 182.703C79.4359 188.573 73.8159 200.243 77.4759 212.683C78.5025 216.19 80.6425 220.16 83.8959 224.593C98.6492 244.713 113.073 264.777 127.166 284.783C154.326 323.33 182.139 362.667 210.606 402.793C225.346 423.567 239.383 443.34 252.716 462.113C256.976 468.107 260.803 473.563 264.196 478.483C276.056 495.673 288.126 512.613 300.086 529.853C303.033 534.093 305.529 537.253 307.576 539.333C314.886 546.753 328.736 549.563 339.146 547.413C342.019 546.82 346.239 545 351.806 541.953C364.459 535.027 377.079 528.117 389.666 521.223C448.499 489.003 510.309 455.047 575.096 419.353C582.343 415.36 590.436 410.877 599.376 405.903C606.816 401.763 611.206 398.563 614.376 391.093C619.376 379.333 615.026 368.363 607.796 358.243C581.029 320.817 537.193 259.193 476.286 173.373C463.486 155.343 451.006 138.143 437.296 118.643C425.409 101.737 413.356 84.6667 401.136 67.4333C397.756 62.6667 394.653 58.5633 391.826 55.1233C388.699 51.3167 384.213 48.1933 378.366 45.7533ZM311.926 564.423C300.576 560.303 292.516 553.003 285.516 543.453C279.223 534.853 273.653 527.11 268.806 520.223C252.066 496.437 235.339 472.777 218.626 449.243C206.979 432.837 196.076 417.367 185.916 402.833C181.916 397.113 177.546 390.913 172.806 384.233C144.939 344.953 117.629 306.403 90.8759 268.583C83.9359 258.783 75.6059 247.217 65.8859 233.883C62.4459 229.17 60.1325 224.317 58.9459 219.323C58.7059 218.29 58.5492 218.303 58.4759 219.363C58.0359 225.543 59.1192 231.523 61.7259 237.303C62.5659 239.17 65.7859 244.133 71.3859 252.193C89.5792 278.367 106.893 303.193 123.326 326.673C143.779 355.887 166.339 388.01 191.006 423.043C195.626 429.593 200.096 436.413 204.816 442.973C208.183 447.653 211.693 452.587 215.346 457.773C242.556 496.443 269.416 535.033 296.626 575.353C304.746 587.387 316.446 593.5 331.726 593.693C338.893 593.787 345.129 592.377 350.436 589.463C358.849 584.843 366.919 580.45 374.646 576.283C448.459 536.49 515.773 499.93 576.586 466.603C587.159 460.81 598.093 454.76 609.386 448.453C621.426 441.727 628.219 431.477 629.766 417.703C630.193 413.923 630.466 409.153 630.586 403.393C630.606 402.647 630.459 402.613 630.146 403.293C628.146 407.593 625.616 411.283 621.846 414.643C617.466 418.55 612.393 422.093 606.626 425.273C575.419 442.487 542.109 460.77 506.696 480.123C489.603 489.47 472.726 498.69 456.066 507.783C428.199 522.99 401.719 537.55 376.626 551.463C371.353 554.39 365.449 557.557 358.916 560.963C353.229 563.937 348.526 565.843 344.806 566.683C333.859 569.17 322.899 568.417 311.926 564.423ZM630.276 457.433C630.323 456.94 630.419 456.457 630.566 455.983C630.746 455.383 630.646 455.33 630.266 455.823C624.016 463.973 614.836 468.843 605.866 473.713C537.146 511.003 466.606 548.973 399.906 585.193C387.116 592.143 373.956 598.883 361.246 605.843C356.419 608.497 352.156 610.31 348.456 611.283C332.909 615.377 317.993 613.69 303.706 606.223C294.693 601.51 287.486 595.21 282.086 587.323C269.586 569.077 257.736 551.847 246.536 535.633C210.069 482.82 170.189 425.717 126.896 364.323C108.783 338.643 87.9525 308.84 64.4059 274.913C60.6759 269.533 56.7059 264.333 53.0159 258.793C52.3159 257.747 51.9325 257.853 51.8659 259.113C51.4125 267.433 53.3125 274.96 57.5659 281.693C60.3659 286.127 63.2192 290.43 66.1259 294.603C98.7992 341.51 135.536 394.01 176.336 452.103C186.129 466.043 196.769 481.303 208.256 497.883C220.569 515.657 233.279 534.053 246.386 553.073C255.106 565.723 263.476 578.313 272.336 590.583C279.083 599.923 285.023 608.387 290.156 615.973C299.816 630.243 314.236 637.743 331.516 636.603C340.416 636.013 347.576 631.623 355.116 627.443C394.936 605.363 450.099 575.053 520.606 536.513C547.406 521.863 574.356 507.503 600.746 492.993C610.106 487.847 615.809 484.417 617.856 482.703C625.109 476.643 629.249 468.22 630.276 457.433ZM629.786 355.373C630.236 356.033 630.356 356.683 630.706 357.363C630.939 357.797 631.223 357.83 631.556 357.463C634.403 354.337 636.453 351.053 637.706 347.613C642.776 333.683 634.776 322.863 623.066 316.403C614.259 311.55 605.109 306.707 595.616 301.873C593.426 300.763 591.506 299.263 589.436 297.943C588.896 297.597 588.799 297.693 589.146 298.233C589.836 299.263 590.726 300.193 591.466 301.233C603.576 318.243 617.546 337.013 629.786 355.373ZM60.7859 328.763C56.9992 331.03 53.4025 333.547 49.9959 336.313C42.5759 342.363 39.3859 352.233 43.1059 361.203C46.3059 368.933 52.5959 373.493 59.5859 377.673C71.3192 384.707 83.2159 392.073 95.2759 399.773C106.246 406.773 118.066 413.593 128.796 420.863C130.576 422.07 130.853 421.79 129.626 420.023C113.359 396.597 96.7159 372.68 79.6959 348.273C74.7092 341.127 69.6259 334.023 64.4459 326.963C64.1859 326.61 63.8859 326.57 63.5459 326.843C62.6859 327.537 61.7659 328.177 60.7859 328.763ZM636.036 387.973C636.035 388.091 636.076 388.206 636.15 388.297C636.225 388.389 636.328 388.451 636.444 388.475C636.559 388.499 636.68 388.481 636.784 388.426C636.888 388.371 636.97 388.282 637.016 388.173L644.026 371.173C644.073 371.063 644.079 370.94 644.045 370.826C644.01 370.711 643.936 370.612 643.836 370.547C643.736 370.481 643.616 370.453 643.497 370.467C643.378 370.481 643.268 370.536 643.186 370.623L636.436 377.793C636.351 377.883 636.301 378 636.296 378.123L636.036 387.973ZM38.8659 400.463C41.6959 407.493 49.5459 412.543 55.7559 416.343C88.4092 436.31 121.069 456.273 153.736 476.233C163.026 481.903 172.936 487.463 182.506 493.463C183.306 493.97 183.419 493.847 182.846 493.093C182.216 492.283 181.306 491.613 180.656 490.763C175.089 483.51 169.469 476.05 163.796 468.383C163.274 467.683 162.622 467.086 161.876 466.623C152.696 460.993 143.726 454.633 134.696 448.803C115.263 436.237 96.2692 424.23 77.7159 412.783C65.5692 405.283 55.6692 399.1 48.0159 394.233C43.8959 391.623 40.2359 388.493 36.9759 384.853C36.4825 384.3 36.2125 384.393 36.1659 385.133C35.8592 390.127 36.7592 395.237 38.8659 400.463ZM180.086 521.653C189.673 526.827 199.509 532.44 209.596 538.493C209.729 538.573 209.836 538.55 209.916 538.423L210.096 538.143C210.116 538.103 210.109 538.073 210.076 538.053C204.376 534.1 198.756 530.187 193.216 526.313C189.069 523.413 184.326 520.303 178.986 516.983C174.246 514.023 169.446 511.007 164.586 507.933C142.413 493.9 114.939 477.133 82.1659 457.633C71.1725 451.093 60.4292 444.627 49.9359 438.233C45.8959 435.773 40.5159 432.463 37.8859 428.463C37.1592 427.363 36.8459 427.467 36.9459 428.773C37.6959 439.273 44.2159 446.183 53.0259 451.213C60.1459 455.28 66.9592 459.137 73.4659 462.783C109.326 482.863 144.586 502.523 180.086 521.653ZM643.315 436.106C643.341 436.042 643.341 435.971 643.314 435.907C643.288 435.843 643.237 435.793 643.173 435.767L642.728 435.586C642.664 435.56 642.593 435.56 642.529 435.587C642.466 435.614 642.416 435.664 642.389 435.728L636.336 450.561C636.31 450.624 636.311 450.696 636.337 450.76C636.364 450.823 636.415 450.874 636.479 450.9L636.923 451.081C636.987 451.107 637.059 451.107 637.122 451.08C637.186 451.053 637.236 451.002 637.262 450.938L643.315 436.106Z" fill="#023353"/>
<path d="M378.366 45.7533C384.213 48.1933 388.699 51.3167 391.826 55.1233C394.653 58.5633 397.756 62.6667 401.136 67.4333C413.356 84.6667 425.409 101.737 437.296 118.643C451.006 138.143 463.486 155.343 476.286 173.373C537.193 259.193 581.029 320.817 607.796 358.243C615.026 368.363 619.376 379.333 614.376 391.093C611.206 398.563 606.816 401.763 599.376 405.903C590.436 410.877 582.343 415.36 575.096 419.353C510.309 455.047 448.499 489.003 389.666 521.223C377.079 528.117 364.459 535.027 351.806 541.953C346.239 545 342.019 546.82 339.146 547.413C328.736 549.563 314.886 546.753 307.576 539.333C305.529 537.253 303.033 534.093 300.086 529.853C288.126 512.613 276.056 495.673 264.196 478.483C260.803 473.563 256.976 468.107 252.716 462.113C239.383 443.34 225.346 423.567 210.606 402.793C182.139 362.667 154.326 323.33 127.166 284.783C113.073 264.777 98.6492 244.713 83.8959 224.593C80.6425 220.16 78.5025 216.19 77.4759 212.683C73.8159 200.243 79.4359 188.573 90.6659 182.703C101.459 177.07 111.509 171.787 120.816 166.853C192.336 128.967 266.049 89.7067 341.956 49.0733C353.486 42.9033 366.376 40.7433 378.366 45.7533ZM306.576 413.253C305.829 414.38 306.363 415.483 308.176 416.563C319.236 423.17 330.809 427.64 342.896 429.973C371.666 435.533 398.916 429.213 423.626 413.363C439.606 403.113 453.036 387.053 459.456 368.483C461.083 363.783 462.183 359.633 462.756 356.033C463.756 349.713 464.256 342.843 462.686 336.403C462.619 336.117 462.439 335.967 462.146 335.953C461.899 335.94 461.639 335.823 461.366 335.603C476.386 297.133 474.426 254.613 453.756 218.583C440.216 194.963 420.386 175.563 396.166 164.003C377.819 155.243 358.829 150.3 339.196 149.173C319.149 148.033 300.029 151.203 281.836 158.683C248.996 172.183 225.723 195.373 212.016 228.253C209.536 234.193 207.469 240.607 205.816 247.493C198.786 276.753 200.246 307.033 212.336 334.373C227.849 369.46 253.609 394.05 289.616 408.143C292.909 409.437 298.563 411.14 306.576 413.253Z" fill="#FDFDFC"/>
<path d="M461.366 335.603C459.866 338.85 458.309 342.047 456.696 345.193C445.763 366.52 430.093 383.453 409.686 395.993C382.873 412.467 353.206 419.07 320.686 415.803C318.526 415.59 313.823 414.74 306.576 413.253C298.563 411.14 292.909 409.437 289.616 408.143C253.609 394.05 227.849 369.46 212.336 334.373C200.246 307.033 198.786 276.753 205.816 247.493C207.469 240.607 209.536 234.193 212.016 228.253C225.723 195.373 248.996 172.183 281.836 158.683C300.029 151.203 319.149 148.033 339.196 149.173C358.829 150.3 377.819 155.243 396.166 164.003C420.386 175.563 440.216 194.963 453.756 218.583C474.426 254.613 476.386 297.133 461.366 335.603ZM312.156 175.123C319.043 178.663 325.259 182.653 330.806 187.093C331.653 187.767 332.319 188.12 332.806 188.153C333.613 188.2 334.369 187.797 335.076 186.943C338.809 182.377 341.826 177.31 344.126 171.743C344.21 171.538 344.247 171.317 344.235 171.096C344.222 170.874 344.161 170.659 344.054 170.464C343.948 170.27 343.8 170.101 343.62 169.971C343.44 169.842 343.234 169.753 343.016 169.713C332.383 167.707 321.449 168.113 310.216 170.933C309.136 171.2 308.159 171.767 307.286 172.633C306.839 173.067 306.919 173.35 307.526 173.483C309.166 173.837 310.709 174.383 312.156 175.123ZM378.336 177.883C374.269 176.29 370.179 174.777 366.066 173.343C365.758 173.235 365.42 173.242 365.115 173.363C364.81 173.484 364.559 173.712 364.406 174.003C359.693 183.097 354.029 191.453 347.416 199.073C347.217 199.303 347.117 199.601 347.135 199.904C347.154 200.207 347.291 200.49 347.516 200.693C354.923 207.327 361.819 214.513 368.206 222.253C368.536 222.652 368.999 222.918 369.51 223.002C370.021 223.087 370.545 222.984 370.986 222.713L409.826 199.013C409.949 198.937 410.054 198.836 410.133 198.715C410.212 198.594 410.264 198.458 410.285 198.315C410.306 198.172 410.296 198.026 410.254 197.887C410.213 197.749 410.142 197.621 410.046 197.513C407.813 194.98 405.469 192.86 403.016 191.153C395.123 185.66 386.896 181.237 378.336 177.883ZM298.036 187.923C295.089 186.537 292.156 185.17 289.236 183.823C288.203 183.35 287.116 183.097 285.976 183.063C285.763 183.058 285.552 183.103 285.36 183.194C285.168 183.286 285.001 183.421 284.871 183.59C284.741 183.759 284.653 183.956 284.614 184.165C284.575 184.374 284.586 184.589 284.646 184.793C287.246 193.513 290.446 202.083 294.246 210.503C294.839 211.823 295.269 213.21 295.536 214.663C295.575 214.875 295.66 215.075 295.786 215.248C295.912 215.422 296.076 215.565 296.264 215.667C296.452 215.769 296.661 215.827 296.874 215.837C297.087 215.846 297.3 215.808 297.496 215.723C300.526 214.443 302.966 212.323 305.846 210.753C310.359 208.307 314.623 205.267 318.636 201.633C318.795 201.491 318.919 201.314 318.998 201.116C319.077 200.918 319.11 200.704 319.094 200.491C319.077 200.279 319.012 200.073 318.903 199.889C318.794 199.706 318.645 199.55 318.466 199.433C311.639 194.94 304.829 191.103 298.036 187.923ZM266.096 200.673C264.846 204.613 263.746 208.043 263.326 212.253C262.799 217.647 262.393 222.987 262.106 228.273C262.093 228.525 262.141 228.777 262.246 229.006C262.351 229.236 262.51 229.437 262.71 229.592C262.909 229.747 263.142 229.852 263.391 229.897C263.639 229.943 263.895 229.928 264.136 229.853C269.169 228.313 273.903 226.53 278.336 224.503C278.968 224.215 279.468 223.699 279.735 223.059C280.002 222.419 280.017 221.702 279.776 221.053C277.823 215.747 275.629 210.233 273.196 204.513C271.989 201.7 270.883 198.783 269.876 195.763C269.309 194.05 268.669 194.02 267.956 195.673C267.283 197.227 266.663 198.893 266.096 200.673ZM385.276 233.953C383.996 235.023 382.136 235.563 380.666 236.293C380.572 236.34 380.489 236.406 380.422 236.486C380.354 236.567 380.305 236.661 380.275 236.762C380.246 236.864 380.239 236.971 380.252 237.076C380.266 237.181 380.301 237.282 380.356 237.373C384.643 244.353 388.853 251.087 392.986 257.573C400.553 269.453 407.216 281.82 412.976 294.673C413.256 295.3 413.706 295.47 414.326 295.183C425.239 290.17 436.923 285.45 449.376 281.023C450.686 280.553 451.066 279.673 451.036 278.333C450.816 267.953 448.939 257.71 445.406 247.603C444.346 244.57 443.203 241.48 441.976 238.333C438.016 228.173 432.466 219.693 424.686 211.403C424.425 211.123 424.073 210.942 423.692 210.893C423.31 210.844 422.923 210.929 422.596 211.133C410.743 218.607 398.819 225.84 386.826 232.833C386.373 233.1 385.856 233.473 385.276 233.953ZM350.746 234.603C351.806 234.03 352.839 233.427 353.846 232.793C354.016 232.686 354.16 232.542 354.268 232.372C354.376 232.203 354.445 232.011 354.471 231.812C354.497 231.612 354.479 231.409 354.417 231.218C354.356 231.026 354.253 230.851 354.116 230.703C348.083 224.243 341.969 218.157 335.776 212.443C335.4 212.097 334.91 211.898 334.399 211.886C333.888 211.873 333.389 212.046 332.996 212.373C324.663 219.32 315.616 225.473 305.856 230.833C305.448 231.055 305.14 231.422 304.991 231.861C304.843 232.301 304.866 232.78 305.056 233.203L313.766 252.463C314.014 253.017 314.469 253.452 315.033 253.674C315.598 253.897 316.227 253.889 316.786 253.653C320.813 251.967 324.593 250.013 328.126 247.793C335.293 243.293 342.833 238.897 350.746 234.603ZM238.506 219.843C235.466 224.263 232.006 230.683 230.916 236.293C230.716 237.307 231.126 237.737 232.146 237.583L243.306 235.943C243.719 235.881 244.094 235.666 244.356 235.34C244.617 235.013 244.746 234.6 244.716 234.183C244.349 229.35 244.306 224.663 244.586 220.123C244.693 218.397 244.573 216.673 244.226 214.953C243.893 213.32 243.156 213.113 242.016 214.333C240.476 215.993 239.776 218.013 238.506 219.843ZM285.886 239.663C279.456 242.913 272.316 245.203 265.596 248.173C264.526 248.643 263.746 249.533 263.926 250.783C265.373 260.59 267.433 269.933 270.106 278.813C270.166 279.015 270.275 279.2 270.423 279.35C270.571 279.5 270.754 279.612 270.956 279.676C271.158 279.74 271.372 279.754 271.581 279.717C271.79 279.68 271.988 279.593 272.156 279.463C280.206 273.243 289.716 268.883 298.506 263.933C299.212 263.534 299.732 262.872 299.953 262.091C300.174 261.31 300.078 260.474 299.686 259.763L289.076 240.643C288.773 240.1 288.272 239.695 287.678 239.512C287.083 239.329 286.441 239.384 285.886 239.663ZM396.546 301.923C394.453 294.123 391.339 286.74 387.206 279.773C380.696 268.793 374.776 257.473 366.986 247.613C366.595 247.12 366.041 246.781 365.422 246.657C364.804 246.532 364.16 246.63 363.606 246.933C350.506 254.103 338.006 260.803 324.756 268.453C324.559 268.567 324.413 268.751 324.346 268.968C324.28 269.185 324.297 269.419 324.396 269.623C325.476 271.883 326.286 274.273 327.596 276.443C336.743 291.563 346.619 306.63 357.226 321.643C357.699 322.31 358.109 323.013 358.456 323.753C358.545 323.94 358.672 324.105 358.829 324.24C358.985 324.374 359.169 324.474 359.366 324.534C359.564 324.593 359.772 324.61 359.977 324.584C360.182 324.558 360.379 324.49 360.556 324.383C368.976 319.323 377.736 315.173 385.316 310.313C389.063 307.913 392.689 305.443 396.196 302.903C396.536 302.657 396.653 302.33 396.546 301.923ZM254.586 290.173C255.706 289.727 256.076 288.93 255.696 287.783C251.949 276.483 249.126 265.17 247.226 253.843C247.199 253.691 247.115 253.554 246.993 253.461C246.87 253.368 246.717 253.326 246.566 253.343C242.506 253.77 238.379 254.38 234.186 255.173C231.286 255.723 228.246 255.583 225.316 255.443C224.974 255.427 224.64 255.544 224.381 255.771C224.122 255.999 223.959 256.318 223.926 256.663C223.639 259.943 223.263 263.157 222.796 266.303C221.426 275.513 221.846 285.273 222.616 294.543C222.796 296.717 223.076 298.903 223.456 301.103C223.886 303.563 223.806 308.403 225.196 310.513C225.923 311.62 226.713 311.667 227.566 310.653C230.559 307.107 233.796 304.1 237.276 301.633C242.156 298.16 247.256 294.69 252.576 291.223C253.216 290.81 253.886 290.46 254.586 290.173ZM280.186 293.483C278.346 294.603 276.076 295.043 277.316 297.923C281.123 306.71 284.936 314.023 288.756 319.863C295.746 330.533 304.016 341.523 313.536 350.453C314.916 351.743 316.446 352.143 318.086 350.913C326.173 344.84 334.543 339.227 343.196 334.073C343.504 333.891 343.736 333.603 343.848 333.263C343.96 332.923 343.945 332.553 343.806 332.223C343.326 331.09 342.766 330.06 342.126 329.133C331.359 313.553 321.776 298.77 313.376 284.783C312.283 282.963 311.259 281.12 310.306 279.253C310.178 279.003 310.002 278.78 309.788 278.597C309.573 278.415 309.325 278.276 309.057 278.19C308.788 278.104 308.505 278.071 308.223 278.094C307.942 278.117 307.668 278.195 307.416 278.323C298.116 283.07 289.039 288.123 280.186 293.483ZM439.696 302.903C433.496 305.53 427.323 308.3 421.176 311.213C419.769 311.88 419.216 312.963 419.516 314.463C422.056 327.263 423.356 340.783 422.016 353.883C421.856 355.43 422.003 357.013 422.456 358.633C422.485 358.738 422.54 358.834 422.617 358.91C422.694 358.987 422.789 359.043 422.894 359.072C422.999 359.102 423.109 359.103 423.214 359.077C423.32 359.051 423.417 358.998 423.496 358.923C427.006 355.583 429.516 351.793 432.186 347.853C438.459 338.6 443.029 328.947 445.896 318.893C447.343 313.84 448.633 309.013 449.766 304.413C450.026 303.373 450.066 302.277 449.886 301.123C449.753 300.31 449.283 299.987 448.476 300.153C445.376 300.82 442.449 301.737 439.696 302.903ZM267.416 316.353C265.446 312.983 264.286 309.323 262.536 305.863C262.444 305.683 262.315 305.524 262.157 305.398C262 305.272 261.817 305.181 261.621 305.132C261.426 305.082 261.223 305.076 261.025 305.112C260.827 305.149 260.64 305.228 260.476 305.343C258.376 306.823 256.546 308.603 254.316 309.943C246.289 314.783 239.486 321.047 233.906 328.733C233.066 329.893 231.936 331.273 232.726 332.793C236.266 339.573 239.686 345.743 244.446 351.853C254.413 364.633 266.339 374.8 280.226 382.353C280.446 382.472 280.7 382.51 280.945 382.46C281.189 382.411 281.409 382.278 281.566 382.083C287.333 374.99 293.976 368.77 301.496 363.423C301.599 363.35 301.685 363.256 301.749 363.147C301.813 363.038 301.853 362.917 301.867 362.792C301.881 362.666 301.869 362.539 301.831 362.419C301.793 362.299 301.73 362.188 301.646 362.093C295.376 354.963 288.586 347.833 283.006 340.183C277.446 332.557 272.249 324.613 267.416 316.353ZM400.666 321.443C391.686 326.563 382.476 331.353 373.046 336.223C370.773 337.397 370.346 339.06 371.766 341.213C372.793 342.773 373.849 344.24 374.936 345.613C381.216 353.493 387.233 360.883 392.986 367.783C394.706 369.85 396.483 371.893 398.316 373.913C399.036 374.713 399.836 374.92 400.716 374.533C401.044 374.391 401.329 374.165 401.543 373.877C401.757 373.589 401.893 373.25 401.936 372.893C402.446 368.663 403.616 364.883 404.186 360.613C405.879 347.933 405.633 335.313 403.446 322.753C403.396 322.457 403.275 322.176 403.093 321.937C402.911 321.697 402.674 321.505 402.401 321.376C402.128 321.247 401.828 321.186 401.526 321.198C401.224 321.21 400.929 321.294 400.666 321.443ZM362.436 378.003C363.709 378.463 364.903 378.85 366.016 379.163C370.649 380.477 375.226 381.793 379.746 383.113C380.859 383.433 381.756 383.21 382.436 382.443C382.589 382.274 382.68 382.056 382.693 381.825C382.706 381.594 382.64 381.364 382.506 381.173C378.986 376.153 374.486 372.223 370.566 367.233C365.733 361.093 360.739 354.793 355.586 348.333C355.313 347.991 354.925 347.76 354.494 347.684C354.063 347.609 353.619 347.694 353.246 347.923L331.566 361.263C331.385 361.374 331.235 361.53 331.132 361.716C331.029 361.902 330.976 362.112 330.978 362.324C330.98 362.537 331.037 362.745 331.144 362.929C331.25 363.113 331.403 363.266 331.586 363.373C341.486 369.3 351.769 374.177 362.436 378.003ZM353.256 393.473C344.406 390.143 335.586 385.403 327.036 380.853C323.546 378.993 320.536 376.743 317.426 374.493C315.406 373.023 312.826 375.113 311.306 376.423C307.553 379.637 304.066 382.763 300.846 385.803C299.599 386.983 298.579 388.313 297.786 389.793C297.752 389.856 297.733 389.927 297.73 389.998C297.728 390.07 297.742 390.141 297.773 390.206C297.803 390.271 297.848 390.328 297.904 390.373C297.96 390.418 298.026 390.449 298.096 390.463C301.776 391.21 305.703 392.187 309.876 393.393C311.783 393.94 316.013 394.647 322.566 395.513C331.136 396.653 339.816 396.303 348.296 396.283C350.083 396.283 351.733 396.007 353.246 395.453C355.039 394.807 355.043 394.147 353.256 393.473Z" fill="#023353"/>
<path d="M311.926 564.423C322.899 568.417 333.859 569.17 344.806 566.683C348.526 565.843 353.229 563.937 358.916 560.963C365.449 557.557 371.353 554.39 376.626 551.463C401.719 537.55 428.199 522.99 456.066 507.783C472.726 498.69 489.603 489.47 506.696 480.123C542.109 460.77 575.419 442.487 606.626 425.273C612.393 422.093 617.466 418.55 621.846 414.643C625.616 411.283 628.146 407.593 630.146 403.293C630.459 402.613 630.606 402.647 630.586 403.393C630.466 409.153 630.193 413.923 629.766 417.703C628.219 431.477 621.426 441.727 609.386 448.453C598.093 454.76 587.159 460.81 576.586 466.603C515.773 499.93 448.459 536.49 374.646 576.283C366.919 580.45 358.849 584.843 350.436 589.463C345.129 592.377 338.893 593.787 331.726 593.693C316.446 593.5 304.746 587.387 296.626 575.353C269.416 535.033 242.556 496.443 215.346 457.773C211.693 452.587 208.183 447.653 204.816 442.973C200.096 436.413 195.626 429.593 191.006 423.043C166.339 388.01 143.779 355.887 123.326 326.673C106.893 303.193 89.5792 278.367 71.3859 252.193C65.7859 244.133 62.5659 239.17 61.7259 237.303C59.1192 231.523 58.0359 225.543 58.4759 219.363C58.5492 218.303 58.7059 218.29 58.9459 219.323C60.1325 224.317 62.4459 229.17 65.8859 233.883C75.6059 247.217 83.9359 258.783 90.8759 268.583C117.629 306.403 144.939 344.953 172.806 384.233C177.546 390.913 181.916 397.113 185.916 402.833C196.076 417.367 206.979 432.837 218.626 449.243C235.339 472.777 252.066 496.437 268.806 520.223C273.653 527.11 279.223 534.853 285.516 543.453C292.516 553.003 300.576 560.303 311.926 564.423Z" fill="#B0D6F0"/>
<path d="M630.276 457.433C629.249 468.22 625.109 476.643 617.856 482.703C615.809 484.417 610.106 487.847 600.746 492.993C574.356 507.503 547.406 521.863 520.606 536.513C450.099 575.053 394.936 605.363 355.116 627.443C347.576 631.623 340.416 636.013 331.516 636.603C314.236 637.743 299.816 630.243 290.156 615.973C285.023 608.387 279.083 599.923 272.336 590.583C263.476 578.313 255.106 565.723 246.386 553.073C233.279 534.053 220.569 515.657 208.256 497.883C196.769 481.303 186.129 466.043 176.336 452.103C135.536 394.01 98.7992 341.51 66.1259 294.603C63.2192 290.43 60.3659 286.127 57.5659 281.693C53.3125 274.96 51.4125 267.433 51.8659 259.113C51.9325 257.853 52.3159 257.747 53.0159 258.793C56.7059 264.333 60.6759 269.533 64.4059 274.913C87.9525 308.84 108.783 338.643 126.896 364.323C170.189 425.717 210.069 482.82 246.536 535.633C257.736 551.847 269.586 569.077 282.086 587.323C287.486 595.21 294.693 601.51 303.706 606.223C317.993 613.69 332.909 615.377 348.456 611.283C352.156 610.31 356.419 608.497 361.246 605.843C373.956 598.883 387.116 592.143 399.906 585.193C466.606 548.973 537.146 511.003 605.866 473.713C614.836 468.843 624.016 463.973 630.266 455.823C630.646 455.33 630.746 455.383 630.566 455.983C630.419 456.457 630.323 456.94 630.276 457.433Z" fill="#B0D6F0"/>
<path d="M629.786 355.373C617.546 337.013 603.576 318.243 591.466 301.233C590.726 300.193 589.836 299.263 589.146 298.233C588.799 297.693 588.896 297.597 589.436 297.943C591.506 299.263 593.426 300.763 595.616 301.873C605.109 306.707 614.259 311.55 623.066 316.403C634.776 322.863 642.776 333.683 637.706 347.613C636.453 351.053 634.403 354.337 631.556 357.463C631.223 357.83 630.939 357.797 630.706 357.363C630.356 356.683 630.236 356.033 629.786 355.373Z" fill="#FDFDFC"/>
<path d="M60.7859 328.763C61.7659 328.177 62.6859 327.537 63.5459 326.843C63.8859 326.57 64.1859 326.61 64.4459 326.963C69.6259 334.023 74.7092 341.127 79.6959 348.273C96.7159 372.68 113.359 396.597 129.626 420.023C130.853 421.79 130.576 422.07 128.796 420.863C118.066 413.593 106.246 406.773 95.2759 399.773C83.2159 392.073 71.3192 384.707 59.5859 377.673C52.5959 373.493 46.3059 368.933 43.1059 361.203C39.3859 352.233 42.5759 342.363 49.9959 336.313C53.4025 333.547 56.9992 331.03 60.7859 328.763Z" fill="#FDFDFC"/>
<path d="M461.366 335.603C461.639 335.823 461.899 335.94 462.146 335.953C462.439 335.967 462.619 336.117 462.686 336.403C464.256 342.843 463.756 349.713 462.756 356.033C462.183 359.633 461.083 363.783 459.456 368.483C453.036 387.053 439.606 403.113 423.626 413.363C398.916 429.213 371.666 435.533 342.896 429.973C330.809 427.64 319.236 423.17 308.176 416.563C306.363 415.483 305.829 414.38 306.576 413.253C313.823 414.74 318.526 415.59 320.686 415.803C353.206 419.07 382.873 412.467 409.686 395.993C430.093 383.453 445.763 366.52 456.696 345.193C458.309 342.047 459.866 338.85 461.366 335.603Z" fill="#B0D6F0"/>
<path d="M634.84 385.93L635.1 376.08C635.105 375.957 635.155 375.839 635.24 375.75L641.99 368.58C642.072 368.493 642.182 368.438 642.301 368.424C642.42 368.41 642.54 368.438 642.64 368.503C642.74 368.569 642.814 368.668 642.849 368.782C642.884 368.897 642.877 369.02 642.83 369.13L635.82 386.13C635.774 386.239 635.692 386.328 635.588 386.383C635.484 386.438 635.364 386.455 635.248 386.432C635.133 386.408 635.029 386.345 634.954 386.254C634.88 386.162 634.84 386.048 634.84 385.93Z" fill="#B0D6F0"/>
<path d="M38.8659 400.463C36.7592 395.237 35.8592 390.127 36.1659 385.133C36.2125 384.393 36.4825 384.3 36.9759 384.853C40.2359 388.493 43.8959 391.623 48.0159 394.233C55.6692 399.1 65.5692 405.283 77.7159 412.783C96.2692 424.23 115.263 436.237 134.696 448.803C143.726 454.633 152.696 460.993 161.876 466.623C162.622 467.086 163.274 467.683 163.796 468.383C169.469 476.05 175.089 483.51 180.656 490.763C181.306 491.613 182.216 492.283 182.846 493.093C183.419 493.847 183.306 493.97 182.506 493.463C172.936 487.463 163.026 481.903 153.736 476.233C121.069 456.273 88.4092 436.31 55.7559 416.343C49.5459 412.543 41.6959 407.493 38.8659 400.463Z" fill="#B0D6F0"/>
<path d="M180.086 521.653C144.586 502.523 109.326 482.863 73.4659 462.783C66.9592 459.137 60.1459 455.28 53.0259 451.213C44.2159 446.183 37.6959 439.273 36.9459 428.773C36.8459 427.467 37.1592 427.363 37.8859 428.463C40.5159 432.463 45.8959 435.773 49.9359 438.233C60.4292 444.627 71.1726 451.093 82.1659 457.633C114.939 477.133 142.413 493.9 164.586 507.933C169.446 511.007 174.246 514.023 178.986 516.983C184.326 520.303 189.069 523.413 193.216 526.313C198.756 530.187 204.376 534.1 210.076 538.053C210.109 538.073 210.116 538.103 210.096 538.143L209.916 538.423C209.836 538.55 209.729 538.573 209.596 538.493C199.509 532.44 189.673 526.827 180.086 521.653Z" fill="#B0D6F0"/>
<path d="M641.977 433.724L641.533 433.542C641.4 433.488 641.248 433.552 641.194 433.685L635.141 448.517C635.086 448.65 635.15 448.802 635.283 448.856L635.727 449.038C635.86 449.092 636.012 449.028 636.066 448.895L642.119 434.063C642.174 433.93 642.11 433.778 641.977 433.724Z" fill="#B0D6F0"/>
</svg>
